<svg width="241px" height="64px" viewBox="0 0 241 64" version="1.1" xmlns="http://www.w3.org/2000/svg"><g fill="none"><path d="m3.25242718 19.9676375c-1.7961165 0-3.25242718 1.4563107-3.25242718 3.2524272s1.45631068 3.2524272 3.25242718 3.2524272h9.83818772c.4045307-2.3300971 1.1812298-4.5307443 2.2977346-6.5210356h-12.13592232z" fill="#005090"/><path d="m28.9158576 9.98381877h-22.394822c-1.79611651 0-3.25242719 1.45631063-3.25242719 3.25242723 0 1.7961165 1.45631068 3.2524271 3.25242719 3.2524271h11.3268608c2.8478965-3.2362459 6.6990292-5.5825242 11.0679612-6.50485433z" fill="#005090"/><path d="m33.1877023 0h-18.656958c-1.7961165 0-3.2524271 1.45631068-3.2524271 3.25242718 0 1.79611651 1.4563106 3.25242719 3.2524271 3.25242719h37.2815534c-5.1132686-4.06148867-11.5695793-6.50485437-18.6245954-6.50485437z" fill="#005090"/><path d="m37.4595469 9.98381877c4.3851133.93851133 8.2200648 3.26860843 11.0679612 6.52103563h11.3915858c-1.1974111-2.3786408-2.7022654-4.5631068-4.4498382-6.52103563z" fill="#005090"/><g fill="#007b90" transform="translate(3.236246 19.886731)"><path d="m58.1553398 0h-10.4530744c1.6828479 2.96116505 2.6537217 6.40776699 2.6537217 10.0647249 0 11.2621359-9.1262136 20.4045308-20.4045308 20.4045308-4.7572815 0-9.1262136-1.6343042-12.605178-4.3689321v.0161813l-6.8284789 6.6990291h-.0161813c5.2265372 4.4822006 12.0226537 7.184466 19.4498382 7.184466 16.5372168 0 29.9352751-13.3980583 29.9352751-29.9352751 0-3.5436893-.5987055-6.92556632-1.7313916-10.0647249z"/><path d="m13.9158576 22.6699029c-2.7184466-3.4789644-4.36893203-7.8478964-4.36893203-12.6213592h-9.54692557c0 7.4271845 2.70226537 14.2071197 7.18446602 19.4498382l.01618123-.0161813z"/></g><path d="m42.3462783 27.184466c-3.0420712.5177994-5.9385113-1.5372168-6.4563107-4.579288-.2588996-1.5372168.1294499-3.02589.9708738-4.1909385-1.7961165-.5825243-3.7378641-.7928803-5.7281553-.4692557-6.6019418 1.1165049-11.0355987 7.3624596-9.9190939 13.9644013 1.1165049 6.6019418 7.3786408 11.0355987 13.9644013 9.9190939 6.6019418-1.1165049 11.0355987-7.3786408 9.9190939-13.9644013-.0970874-.5825243-.2912622-1.1165049-.4530745-1.6666667-.6634304.4854369-1.4239482.841424-2.2977346.987055" fill="#007b90"/><path d="m179.385113 59.8705502h1.262136v-3.1553398l2.815534-4.7572816h-1.423948l-2.006473 3.4951456-1.97411-3.4951456h-1.488673l2.815534 4.789644zm-10.12945 0h1.229774v-5.631068l3.915857 5.631068h1.05178v-7.9126214h-1.229773v5.4692557l-3.802589-5.4692557h-1.165049zm-6.132686-3.1391586 1.213593-3.1553398 1.229773 3.1553398zm-2.459547 3.1391586h1.278318l.728155-1.9093852h3.365696l.728155 1.9093852h1.326861l-3.122977-7.9611651h-1.148868zm-4.304207-3.802589v-2.8478965h1.456311c.938511 0 1.537217.4854369 1.537217 1.407767v.0161812c0 .8252428-.582524 1.407767-1.537217 1.407767h-1.456311zm-1.245954 3.802589h1.245954v-2.5404531h1.407767c1.56958 0 2.847897-.9223301 2.847897-2.7022654v-.0161812c0-1.5857605-1.035599-2.6375405-2.702266-2.6375405h-2.799352zm-8.899677 0h1.229774v-5.6472492l2.216828 3.7055016h.032363l2.249191-3.7216829v5.6634305h1.245954v-7.9126214h-1.326861l-2.168284 3.7378641-2.152104-3.7378641h-1.326861zm-5.258899-1.1488674c-1.407767 0-2.411004-1.2621359-2.411004-2.7993527v-.0161812c0-1.5372169.987055-2.7831716 2.394822-2.7831716s2.411004 1.2783172 2.411004 2.815534v.0161813c0 1.5210356-.987055 2.7669902-2.394822 2.7669902m-.016182 1.2783172c2.184466 0 3.721683-1.8608414 3.721683-4.0938511v-.0161813c0-2.2330097-1.521035-4.0614886-3.705501-4.0614886s-3.721683 1.8608414-3.721683 4.0938511v.0161812c0 2.2330097 1.521035 4.0614887 3.705501 4.0614887m-7.346278 0c1.326861 0 2.135922-.5339806 2.880259-1.407767l-.809062-.9061489c-.614886.631068-1.165048 1.0194175-2.038835 1.0194175-1.359223 0-2.346278-1.2459547-2.346278-2.7993527v-.0161813c0-1.553398 1.003236-2.7831715 2.346278-2.7831715.809062 0 1.423949.3883495 1.990292.987055l.809061-1.0194174c-.679611-.7281554-1.472492-1.2297735-2.783171-1.2297735-2.152104 0-3.656958 1.8446602-3.656958 4.0938511v.0161813c0 2.2491909 1.537217 4.0453074 3.608414 4.0453074m-14.368932-.1294498h1.229773v-5.631068l3.915858 5.631068h1.05178v-7.9126214h-1.229773v5.4692557l-3.802589-5.4692557h-1.165049zm-5.2589-1.1488674c-1.407767 0-2.411003-1.2621359-2.411003-2.7993527v-.0161812c0-1.5372169.987055-2.7831716 2.394822-2.7831716s2.411003 1.2783172 2.411003 2.815534v.0161813c0 1.5210356-.987055 2.7669902-2.394822 2.7669902m-.016181 1.2783172c2.184466 0 3.721683-1.8608414 3.721683-4.0938511v-.0161813c0-2.2330097-1.521036-4.0614886-3.705502-4.0614886s-3.721683 1.8608414-3.721683 4.0938511v.0161812c0 2.2330097 1.521036 4.0614887 3.705502 4.0614887m-11.440129-.1294498h1.229773v-5.631068l3.915858 5.631068h1.05178v-7.9126214h-1.229774v5.4692557l-3.802589-5.4692557h-1.148867v7.9126214zm-6.1326865-3.1391586 1.2135923-3.1553398 1.2297734 3.1553398zm-2.4595469 3.1391586h1.2783172l.7281553-1.9093852h3.3656958l.7119741 1.9093852h1.326861l-3.1391587-7.9611651h-1.1650486zm-3.592233.1294498c1.3268608 0 2.1359223-.5339806 2.8802589-1.407767l-.8090615-.9061489c-.6148867.631068-1.1650485 1.0194175-2.0388349 1.0194175-1.3592233 0-2.3462784-1.2459547-2.3462784-2.7993527v-.0161813c0-1.553398 1.0032363-2.7831715 2.3462784-2.7831715.8090614 0 1.4239482.3883495 1.9902912.987055l.8090615-1.0194174c-.6796116-.7281554-1.4724919-1.2297735-2.7831715-1.2297735-2.1521036 0-3.6731392 1.8446602-3.6731392 4.0938511v.0161813c0 2.2491909 1.5533981 4.0453074 3.6245955 4.0453074m-12.5080906-3.2686084 1.2135922-3.1553398 1.2297735 3.1553398zm-2.4757282 3.1391586h1.2783172l.7281553-1.9093852h3.3656958l.7281553 1.9093852h1.3268609l-3.1229774-7.9611651h-1.1650485z" fill="#000"/><g fill="#005090"><path d="m78.6407767 0c-2.2491909 0-3.3009709 1.06796117-3.3009709 3.34951456v32.79935274c0 2.2815534 1.05178 3.3495146 3.3009709 3.3495146s3.3009709-1.0679612 3.3009709-3.3495146v-32.79935274c.0161812-2.28155339-1.0355987-3.34951456-3.3009709-3.34951456z"/><path d="m136.294498 0c-2.249191 0-3.30097 1.06796117-3.30097 3.34951456v32.79935274c0 2.2815534 1.051779 3.3495146 3.30097 3.3495146s3.300971-1.0679612 3.300971-3.3495146v-32.79935274c.016181-2.28155339-1.035598-3.34951456-3.300971-3.34951456z"/><ellipse cx="86.925566" cy="37.491909" rx="2.038835" ry="2.006472"/><ellipse cx="128.02589" cy="37.491909" rx="2.038835" ry="2.006472"/><ellipse cx="144.563107" cy="37.491909" rx="2.038835" ry="2.006472"/><ellipse cx="181.423948" cy="37.491909" rx="2.038835" ry="2.006472"/><path d="m167.459547 16.6504854h-7.135922c-3.090615 0-5.2589-1.9579288-5.2589-4.7572815 0-2.84789646 2.168285-4.82200649 5.2589-4.82200649h12.669903c2.281553 0 3.349514-1.05177993 3.349514-3.30097087s-1.067961-3.30097088-3.349514-3.30097088h-12.734628c-6.893204 0-12.087379 4.91909385-12.087379 11.44012944 0 6.4886732 5.194175 11.3915858 12.087379 11.3915858h6.957928c3.090615 0 5.2589 1.9579288 5.2589 4.7572815 0 2.8802589-2.119741 4.8220065-5.2589 4.8220065h-14.174757c-2.281553 0-3.349514 1.0517799-3.349514 3.3009709 0 2.2491909 1.067961 3.3009708 3.349514 3.3009708h14.304207c6.97411 0 12.022692-4.789644 12.022692-11.3754045.016143-6.5210356-5.113307-11.4563107-11.909423-11.4563107z"/><path d="m122.76699 35.0323625-3.414239-7.6860842c-.631068-1.3915857-1.359223-2.5404531-2.152104-3.3980582-.550162-.5825243-1.116505-1.0679612-1.71521-1.4401295l-.501618-.3074434.53398-.2588996c1.650486-.7605178 3.042072-2.0226537 4.142395-3.7216829 1.294499-2.0064725 1.957929-4.1423948 1.957929-6.3754045 0-2.34627832-.582524-4.4012945-1.731392-6.0841424-1.148867-1.6828479-2.669903-3.00970874-4.546925-3.93203884-1.877023-.92233009-3.915858-1.39158576-6.067961-1.39158576h-11.7799356c-1.3430421 0-2.6375405.45307444-3.8187702 1.3592233-1.197411.90614887-1.7961165 2.24919094-1.7961165 3.98058253v30.59870547c0 2.1844661 1.0355987 3.1553398 3.3495145 3.1553398 2.3139159 0 3.3495146-.9708737 3.3495146-3.1553398v-9.7572815c0-1.828479.7605178-2.7184466 2.3300972-2.7184466h4.886731c1.488673 0 2.864078.3398058 4.110033 1.0194175 1.229773.6796116 2.265372 1.9255663 3.074433 3.7216828l3.883495 9.0938511c.5178 1.2459547 1.456311 1.8770227 2.766991 1.8770227.776699 0 1.553398-.2588997 2.297734-.776699.760518-.5339806 1.148868-1.3915858 1.148868-2.5728156-.016182-.4045307-.113269-.8576052-.307444-1.2297734zm-9.902912-18.5760518c-1.456311 1.0194175-2.977347 1.5372168-4.514563 1.5372168h-7.815534c-1.31068 0-1.9579292-.6634304-1.9579292-2.0550162v-7.20064722c0-1.50485437.7281553-2.24919094 2.2330092-2.24919094h7.896441c1.537216 0 3.009708.46925566 4.336569 1.39158576 1.326861.93851133 1.97411 2.2977346 1.97411 4.1585761.016181 1.9417475-.679611 3.381877-2.152103 4.4174757z"/></g></g></svg>